<?xml version="1.0" encoding="UTF-8" standalone="no"?>
<!-- Created with Inkscape (http://www.inkscape.org/) -->

<svg
   version="1.1"
   id="svg2"
   width="3333.3333"
   height="3333.3333"
   viewBox="0 0 3333.3333 3333.3333"
   sodipodi:docname="vecteezy_electric-bike-motorcycle-and-route-icon-on-white_6960543.eps"
   xmlns:inkscape="http://www.inkscape.org/namespaces/inkscape"
   xmlns:sodipodi="http://sodipodi.sourceforge.net/DTD/sodipodi-0.dtd"
   xmlns="http://www.w3.org/2000/svg"
   xmlns:svg="http://www.w3.org/2000/svg">
  <defs
     id="defs6">
    <clipPath
       clipPathUnits="userSpaceOnUse"
       id="clipPath20">
      <path
         d="M 18497.8,7320.9 H 7050.49 c -81.04,0 -156.11,-55.5 -168.93,-135.5 -16.61,-102.1 61.66,-190 160.47,-190 H 18497.8 c 90,0 162.8,72.8 162.8,162.7 v 0 c 0,89.9 -72.8,162.8 -162.8,162.8 z m -5390.2,2389.9 c -645.2,0 -1168.6,523.4 -1168.6,1168.5 0,395 196.1,743.9 495.8,955.5 l 355.7,-791 c -25.5,-49.2 -40.3,-105 -40.3,-164.3 0,-197.4 160.2,-357.5 357.6,-357.5 197.4,0 357.4,160.1 357.4,357.5 0,165.2 -112.2,303.9 -264.4,344.9 l -296.1,805.9 c 66,11.6 133.7,18 202.9,18 645.5,0 1168.8,-523.4 1168.8,-1169 0,-645.1 -523.3,-1168.5 -1168.8,-1168.5 z m -6456.57,3.4 c -642.34,0 -1165,522.4 -1165,1164.8 0,642.2 522.66,1164.9 1165,1164.9 342.96,0 651.57,-149 864.95,-385.6 -372.88,-135.7 -695.56,-250.7 -954.38,-376.1 -190.59,-92.4 -274.07,-290.3 -209.11,-492.1 58.17,-180.9 228.31,-299.2 412.1,-299.2 h 984.73 c -160.34,-452 -591.97,-776.7 -1098.29,-776.7 z m 6456.67,2978.9 c -147.2,0 -290.3,-18.1 -427.4,-51.4 l -183,498.2 c 204.7,58.4 419.2,89.7 639.1,89.7 87.3,0 176.2,-4.9 265.8,-14.8 77.3,-8.5 144.6,52.4 144.6,130.1 0,33.2 -12.5,63.9 -33.2,87.2 -20.8,23.3 -49.8,39.1 -82.8,42.8 -99.2,10.8 -215.8,21 -312.5,21 -251.3,0 -476.2,-23.1 -720.9,-82.7 l -85.8,248.2 c 88.6,-2.8 250.4,-7.9 298.9,-7.9 67.7,0 119.8,-1 148.1,156.6 25,139.5 42.3,292 5.6,458.5 -25.4,115.2 -76.2,139.2 -138.6,136.5 -128.2,-5.5 -452,-82.5 -564.3,-110 -157.3,276.2 -386.8,486.1 -706.4,619 -24.6,10.3 -85.9,23.2 -132.4,15.7 -148,-23.7 -552.5,-81.3 -552.5,-81.3 -70.2,-16.9 -73,-75.6 -56.1,-146 17,-70 47.2,-125.7 117.6,-108.1 l 511.3,71.3 c 318.2,-103.8 472.4,-571.1 472.4,-571.1 -581.1,-38.7 -1053,-180.8 -1462.8,-320.1 l -314.88,-933.5 730.28,28.4 -1173.32,-2055.2 296.02,1411.7 -673.35,-25.7 367.52,1326.6 c -221.85,-55 -431.3,-78.9 -640.66,-44 -487.05,81.1 -1423.82,355.5 -2097.18,566.2 -307.93,96.3 -456.79,82.6 -685.42,-94.7 -151.87,-117.7 -151.87,-117.7 30,-209 1030.4,-516.9 1902.47,-1108.9 2316.18,-1744.6 -87.08,-36.2 -172.41,-70.5 -256.22,-103.5 -326.7,479.9 -877.27,795.8 -1500.34,795.8 -1004.08,0 -1827.13,-834.5 -1813.8,-1838.5 13.16,-988.9 821.78,-1789.4 1813.8,-1789.4 866.97,0 1593.46,611.6 1771.73,1425.8 h 215.31 c 0,0 -5.61,-387.9 363.92,-387.9 h 1085.61 c 355.7,0 579.7,269.1 644.1,644.1 64.4,375.2 104.2,721.3 239.3,1049.9 211.6,514.4 514,882.3 976.8,1121.2 l 219.6,-488.4 c -529.8,-322.4 -882.1,-908.6 -873.5,-1574.7 13.1,-999.6 842.4,-1804.8 1841.8,-1789.6 987.4,15.1 1785.9,822.9 1785.9,1813.7 0,1000.1 -813.7,1813.9 -1813.9,1813.9 z m 4752.1,2707.8 c -502.4,0 -911.1,408.8 -911.1,911.2 0,502.3 408.7,910.9 911.1,910.9 502.5,0 911.1,-408.6 911.1,-910.9 0,-502.4 -408.6,-911.2 -911.1,-911.2 z m 0,2594.5 c -978,0 -1773.6,-795.7 -1773.6,-1773.9 l 0.2,-21.7 c 16,-1277.3 1342.8,-2614.9 1773.4,-2972.7 430.9,357.8 1757.5,1695.5 1773.6,2971.3 l 0.1,23.1 c 0,978.2 -795.5,1773.9 -1773.7,1773.9 z m 2934.5,-8294.6 c 0,-807 -656.6,-1463.5 -1463.4,-1463.5 H 4908.54 c -89.92,0 -162.8,72.8 -162.8,162.8 0,89.9 72.88,162.7 162.8,162.7 H 19330.9 c 627.3,0 1137.8,510.6 1137.8,1138 0,627.3 -510.5,1137.7 -1137.8,1137.7 h -2240.1 c -560.7,0 -1016.9,456.2 -1016.9,1016.9 0,560.7 456.2,1016.9 1016.9,1016.9 h 2188.4 c 89.9,0 162.8,-72.8 162.8,-162.7 0,-90 -72.9,-162.8 -162.8,-162.8 h -2188.4 c -381.3,0 -691.5,-310.1 -691.5,-691.4 0,-381.2 310.2,-691.3 691.5,-691.3 h 2240.1 c 806.8,0 1463.4,-656.5 1463.4,-1463.3 z"
         id="path18" />
    </clipPath>
    <linearGradient
       x1="0"
       y1="0"
       x2="1"
       y2="0"
       gradientUnits="userSpaceOnUse"
       gradientTransform="matrix(-6138.78,10632.7,10632.7,6138.78,16172.6,5627.7)"
       spreadMethod="pad"
       id="linearGradient26">
      <stop
         style="stop-opacity:1;stop-color:#00a8e6"
         offset="0"
         id="stop22" />
      <stop
         style="stop-opacity:1;stop-color:#33e39a"
         offset="1"
         id="stop24" />
    </linearGradient>
  </defs>
  <sodipodi:namedview
     id="namedview4"
     pagecolor="#ffffff"
     bordercolor="#000000"
     borderopacity="0.25"
     inkscape:showpageshadow="2"
     inkscape:pageopacity="0.0"
     inkscape:pagecheckerboard="0"
     inkscape:deskcolor="#d1d1d1" />
  <g
     id="g8"
     inkscape:groupmode="layer"
     inkscape:label="ink_ext_XXXXXX"
     transform="matrix(1.3333333,0,0,-1.3333333,0,3333.3333)">
    <g
       id="g10"
       transform="scale(0.1)">
      <path
         d="M 25000,0 H 0 V 25000 H 25000 V 0"
         style="fill:#ffffff;fill-opacity:1;fill-rule:nonzero;stroke:none"
         id="path12" />
      <g
         id="g14">
        <g
           id="g16"
           clip-path="url(#clipPath20)">
          <path
             d="M 18497.8,7320.9 H 7050.49 c -81.04,0 -156.11,-55.5 -168.93,-135.5 -16.61,-102.1 61.66,-190 160.47,-190 H 18497.8 c 90,0 162.8,72.8 162.8,162.7 v 0 c 0,89.9 -72.8,162.8 -162.8,162.8 z m -5390.2,2389.9 c -645.2,0 -1168.6,523.4 -1168.6,1168.5 0,395 196.1,743.9 495.8,955.5 l 355.7,-791 c -25.5,-49.2 -40.3,-105 -40.3,-164.3 0,-197.4 160.2,-357.5 357.6,-357.5 197.4,0 357.4,160.1 357.4,357.5 0,165.2 -112.2,303.9 -264.4,344.9 l -296.1,805.9 c 66,11.6 133.7,18 202.9,18 645.5,0 1168.8,-523.4 1168.8,-1169 0,-645.1 -523.3,-1168.5 -1168.8,-1168.5 z m -6456.57,3.4 c -642.34,0 -1165,522.4 -1165,1164.8 0,642.2 522.66,1164.9 1165,1164.9 342.96,0 651.57,-149 864.95,-385.6 -372.88,-135.7 -695.56,-250.7 -954.38,-376.1 -190.59,-92.4 -274.07,-290.3 -209.11,-492.1 58.17,-180.9 228.31,-299.2 412.1,-299.2 h 984.73 c -160.34,-452 -591.97,-776.7 -1098.29,-776.7 z m 6456.67,2978.9 c -147.2,0 -290.3,-18.1 -427.4,-51.4 l -183,498.2 c 204.7,58.4 419.2,89.7 639.1,89.7 87.3,0 176.2,-4.9 265.8,-14.8 77.3,-8.5 144.6,52.4 144.6,130.1 0,33.2 -12.5,63.9 -33.2,87.2 -20.8,23.3 -49.8,39.1 -82.8,42.8 -99.2,10.8 -215.8,21 -312.5,21 -251.3,0 -476.2,-23.1 -720.9,-82.7 l -85.8,248.2 c 88.6,-2.8 250.4,-7.9 298.9,-7.9 67.7,0 119.8,-1 148.1,156.6 25,139.5 42.3,292 5.6,458.5 -25.4,115.2 -76.2,139.2 -138.6,136.5 -128.2,-5.5 -452,-82.5 -564.3,-110 -157.3,276.2 -386.8,486.1 -706.4,619 -24.6,10.3 -85.9,23.2 -132.4,15.7 -148,-23.7 -552.5,-81.3 -552.5,-81.3 -70.2,-16.9 -73,-75.6 -56.1,-146 17,-70 47.2,-125.7 117.6,-108.1 l 511.3,71.3 c 318.2,-103.8 472.4,-571.1 472.4,-571.1 -581.1,-38.7 -1053,-180.8 -1462.8,-320.1 l -314.88,-933.5 730.28,28.4 -1173.32,-2055.2 296.02,1411.7 -673.35,-25.7 367.52,1326.6 c -221.85,-55 -431.3,-78.9 -640.66,-44 -487.05,81.1 -1423.82,355.5 -2097.18,566.2 -307.93,96.3 -456.79,82.6 -685.42,-94.7 -151.87,-117.7 -151.87,-117.7 30,-209 1030.4,-516.9 1902.47,-1108.9 2316.18,-1744.6 -87.08,-36.2 -172.41,-70.5 -256.22,-103.5 -326.7,479.9 -877.27,795.8 -1500.34,795.8 -1004.08,0 -1827.13,-834.5 -1813.8,-1838.5 13.16,-988.9 821.78,-1789.4 1813.8,-1789.4 866.97,0 1593.46,611.6 1771.73,1425.8 h 215.31 c 0,0 -5.61,-387.9 363.92,-387.9 h 1085.61 c 355.7,0 579.7,269.1 644.1,644.1 64.4,375.2 104.2,721.3 239.3,1049.9 211.6,514.4 514,882.3 976.8,1121.2 l 219.6,-488.4 c -529.8,-322.4 -882.1,-908.6 -873.5,-1574.7 13.1,-999.6 842.4,-1804.8 1841.8,-1789.6 987.4,15.1 1785.9,822.9 1785.9,1813.7 0,1000.1 -813.7,1813.9 -1813.9,1813.9 z m 4752.1,2707.8 c -502.4,0 -911.1,408.8 -911.1,911.2 0,502.3 408.7,910.9 911.1,910.9 502.5,0 911.1,-408.6 911.1,-910.9 0,-502.4 -408.6,-911.2 -911.1,-911.2 z m 0,2594.5 c -978,0 -1773.6,-795.7 -1773.6,-1773.9 l 0.2,-21.7 c 16,-1277.3 1342.8,-2614.9 1773.4,-2972.7 430.9,357.8 1757.5,1695.5 1773.6,2971.3 l 0.1,23.1 c 0,978.2 -795.5,1773.9 -1773.7,1773.9 z m 2934.5,-8294.6 c 0,-807 -656.6,-1463.5 -1463.4,-1463.5 H 4908.54 c -89.92,0 -162.8,72.8 -162.8,162.8 0,89.9 72.88,162.7 162.8,162.7 H 19330.9 c 627.3,0 1137.8,510.6 1137.8,1138 0,627.3 -510.5,1137.7 -1137.8,1137.7 h -2240.1 c -560.7,0 -1016.9,456.2 -1016.9,1016.9 0,560.7 456.2,1016.9 1016.9,1016.9 h 2188.4 c 89.9,0 162.8,-72.8 162.8,-162.7 0,-90 -72.9,-162.8 -162.8,-162.8 h -2188.4 c -381.3,0 -691.5,-310.1 -691.5,-691.4 0,-381.2 310.2,-691.3 691.5,-691.3 h 2240.1 c 806.8,0 1463.4,-656.5 1463.4,-1463.3"
             style="fill:url(#linearGradient26);fill-opacity:1;fill-rule:nonzero;stroke:none"
             id="path28" />
        </g>
      </g>
    </g>
  </g>
</svg>
